<?xml version="1.0" encoding="UTF-8"?>
<svg id="Layer_2" xmlns="http://www.w3.org/2000/svg" viewBox="0 0 350.13 349.64">
  <g id="Layer_1-2" data-name="Layer_1">
    <g>
      <path d="M349.63,174.82c0,7.47-.47,14.84-1.38,22.07h0c-7.4,58.79-44,108.48-94.81,134.11-16.22,6.05-33.76,9.35-52.06,9.35-52.57,0-98.89-27.27-125.56-68.41,25.17,25.64,60.23,41.55,99,41.55,48.95,0,91.98-25.36,116.66-63.67-23.05,14.48-43.67,18.93-54.37,9.59-16.84-14.72-6-53.55,27.38-94.71l.02-.02c1.7-2.1,3.46-4.2,5.28-6.31.37-.43.74-.85,1.11-1.28l.54-.93c12.54-17.12,19.94-38.23,19.94-61.07,0-27.65-10.84-52.76-28.49-71.32,31.26,18.28,56.34,45.97,71.34,79.19,3.32,7.37,6.16,15.02,8.45,22.89,4.17,14.32,6.56,29.41,6.9,45,.04,1.32.05,2.64.05,3.97Z" style="fill: #099351; stroke: #099351; stroke-miterlimit: 10;"/>
      <path d="M274.23,115.9l-55.28,80.45h-.01l-51.13,74.41,12.12-67.97,5.67-31.79-67.12,9.16-30.71,4.2,8.04-29.6,24.3-89.39,2.3-8.49h0l3.18-11.74c-15.15,5.74-29.01,14.07-41.08,24.43-29.62,25.44-48.38,63.15-48.38,105.25,0,26.39,7.37,51.05,20.17,72.05,22.53,58.15,79.06,99.48,145.07,99.48,2.86,0,5.71-.08,8.53-.23-11.34,2.31-23.07,3.52-35.09,3.52C78.27,349.64,0,271.37,0,174.82,0,85.61,66.82,12.01,153.14,1.33c7.1-.88,14.34-1.33,21.68-1.33,15.11,0,29.78,1.92,43.77,5.52l-12.43,29.85-1.65,3.96-.82,1.99-39.99,93.89,110.53-19.31Z" style="fill: #df7838;"/>
    </g>
  </g>
</svg>