<?xml version="1.0" encoding="UTF-8"?>
<svg id="Layer_2" xmlns="http://www.w3.org/2000/svg" viewBox="0 0 992.04 344.91">
  <g id="Layer_1-2" data-name="Layer_1">
    <g>
      <path d="M175.14,257.67c-2.56,3.58-4.13,7.88-7.73,10.72-2.97-11.55,2.08-22.2,4.17-33.06,3.89-20.21,9.63-40.05,12.6-60.47.75-5.15-.86-6.73-6.19-5.81-27.47,4.74-55,9.14-82.48,13.81-2.62.45-5.11.82-8.46.33,12.41-46.77,24.76-93.28,37.49-141.25-10.68,2.84-18.27,7.43-25.77,12.23-6.65,3.67-12.93,7.81-17.65,13.92-24.43,20.61-37.44,47.72-41.32,78.63-3.03,24.13-2.19,48.61,6.43,72.04,2.99,15.23,9.52,29.05,17.35,42.26,22.2,37.43,52.2,65.2,95.13,77.39,6.46,1.83,13.77,1.14,21.49,6.5h-21.96c-55.41-5.5-98.74-31.13-129.91-77.43C-18.64,197.67-7.38,95.61,63.38,38.92,106.68,4.23,155.25-6.34,209.12,3.51c7.1,1.3,8.62,3.16,5.24,10.67-16.21,35.97-32.94,71.74-46.93,108.67-2.98,7.86-1.93,9.42,6.43,8.22,27.06-3.89,53.96-8.76,80.61-14.87,5.96-1.37,11.85-2.78,19.37-2.67-33.36,47.61-63.27,96.55-97.33,142.7-.74-.58-1.53-.88-2.06.14-.13.25.45.86.7,1.3Z" style="fill: #df7838;"/>
      <path d="M290.96,47.42c25.2,21.84,40.73,49.68,48.87,81.54,19.39,75.9-10.34,149.33-77.11,192.1-17.7,8.2-35.55,15.93-55.53,16.44-.33-1.85-1.11-3.28-3.23-3.39-10.44-.57-21.04,1.05-31.13-3.51-7.29-3.29-16.85-.11-22.76-7.81-.47-.61-2.33-.82-3.13-.41-4.9,2.51-8.57-.25-12.79-2.13-3.47-1.54-6.5-5.18-11.05-3.58l.03.04c.41-6.11-.59-9.87-7.19-4.31l-.62-.48c3.01-7.04,11.22-12.04,17.8-8.88,7.85,3.77,15.65,2.67,23.58,2.91.54-.27,1.05-.22,1.54.14.55.95,1.02,2.65,1.67,2.72,10.53,1.11,21.09,1.1,31.62.01.64-.07,1.12-1.77,1.68-2.71.49-.37,1.02-.43,1.57-.16,4.2-.81,9.48,2.72,12.44-3.09,17.76-5.53,35.61-10.98,50.92-22.03,11.71-8.44,21.81-18.53,28.2-32.28-5.46,2.92-10.9,5.91-16.41,8.74-2.32,1.19-4.74,2.25-7.22,3.08-20.37,6.84-32.93-2.5-32.42-24.36.43-18.83,6.54-35.9,17.18-51.35,5.1-7.41,10.5-14.61,15.76-21.91,1.22-.7,2.73-1.14,3.6-2.15,13.79-15.98,21.42-34.87,24.02-55.49,1.57-12.49,0-25.05-2.87-37.57-1.21-5.31-1.46-9.06-7.49-9.63,0,0,.03.06.03.06,2.05-7.36-3.97-12.33-6.48-18.53,8.01-.84,9.26,9.92,16.93,7.97Z" style="fill: #099351;"/>
      <path d="M490.08,86.5c0-14.85.29-29.71-.15-44.55-.17-5.79,1.44-7.99,7.18-7.03,1.7.28,3.52.26,5.23,0,6.6-.98,9.21,1.18,8.69,8.35-.69,9.56.07,19.21-.2,28.81-.14,5,.97,7.3,6.67,7.07,11.34-.45,22.71-.29,34.07-.07,4.72.09,6.72-1.1,6.5-6.37-.44-10.46.09-20.97-.21-31.44-.13-4.6.66-6.5,5.98-6.47,14.84.09,14.83-.21,14.84,14.41.02,27.08-.12,54.17.19,81.25.07,5.79-1,8.89-7.49,7.89-2.28-.35-4.7-.36-6.97,0-5.78.93-6.69-1.86-6.53-6.9.34-11.06-.09-22.13.18-33.19.12-4.88-1.47-6.7-6.45-6.6-11.64.25-23.3.19-34.94-.03-4.61-.09-5.99,1.74-5.89,6.17.25,11.06-.14,22.14.22,33.19.17,5.45-1.12,8.41-7.15,7.29-.28-.05-.58,0-.87,0q-12.93.1-12.9-12.48c.02-13.11,0-26.21,0-39.32Z" style="fill: #113d7a;"/>
      <path d="M447.86,81.79c4.15,1.57,7.81,2.6,11.15,4.27,17.31,8.7,19.27,31.31,3.77,43.09-7.65,5.81-16.52,8.63-25.96,8.9-14.54.42-29.11.02-43.65.36-4.86.11-5.75-1.82-5.73-6.14.15-30.27.06-60.54.14-90.81,0-2.61-1.25-6.54,3.49-6.39,17.69.53,35.58-2.23,53.03,2.18,13.72,3.47,21.12,14.01,20.23,26.7-.71,10.11-9.03,13.22-16.48,17.84ZM439.54,52.7c-.56-.6-1.12-1.2-1.67-1.8-4.79-8.14-19.14-10.21-26.15-3.78-1.09.15-2.18.31-3.27.46-.44.36-1.15.65-1.27,1.09-2.42,8.69,1.92,18.4-4.07,26.61-.58.8-.04,1.59,1.59,1.92,9.3,1.84,18.53,3.84,27.63-.74,3.6-1.41,6.04-4.31,8.81-6.79.78,1.23,2.02,2.57,2.96.72.92-1.81-1.07-2.83-2.47-3.73-.34-.94-.15-1.68.83-2.1,4.41-3.33,2.5-7.93,1.74-11.82-.5-2.58-3.03-1.92-4.65-.03ZM423.76,88.69c0,.09-.01.18-.02.27-2.32,0-4.68.28-6.96-.05-6.81-1-9.17,1.59-8.62,8.52.62,7.79.14,15.66.16,23.49,0,2.31-.32,5.05,3.23,4.86,8.93-.47,18.01,1.45,26.8-1.42,8.51-2.78,13.61-10.04,13.06-18.37-.51-7.63-6.57-14.72-14.66-16.33-4.23-.84-8.66-.67-12.99-.96Z" style="fill: #0f3b78;"/>
      <path d="M504.24,298.78c-2.32.01-4.65.03-6.97.04-5.48-2.72-7.48-6.79-7.15-13.19.63-12.38.18-24.81.18-37.22-.57,0-1.14,0-1.71,0v47.8c.02-32.18.04-64.37.06-96.55,1.64,4.98,3,5.83,3.54,4.06,2.23-7.35,8.25-5.61,13.33-6.01,10.05-.79,20.23,1.45,30.21-1.29,13.57,1.81,25.42,6.54,31.71,19.8,7.53,15.87,1.51,29.54-17.76,39.97,9.47,13.82,18.9,27.58,29.38,42.88-7.68,0-13.88-.11-20.07.04-3.3.08-4.43-2.28-5.88-4.42-6.01-8.92-12-17.85-18.04-26.74-3.68-5.42-18.74-9.19-24.2-6.12-2.68,1.5-1.45,4.09-1.63,6.23-.83,9.71,1.57,19.57-1.34,29.18-2.53-2.63-3.22-.87-3.64,1.53ZM509.13,228.97h-.08c0,5.23.03,10.46-.01,15.68-.02,2.86.28,5.17,4.1,5.05,6.66-.2,13.37.57,19.93-1.25,9.92-2.75,16.3-12.6,14.68-22.66-2.18-13.5-13.56-20.06-33.82-17.3-10.1,1.38-2.66,10.8-4.72,16.14-.49,1.26-.07,2.88-.07,4.33ZM489.01,242.93c.27,0,.53,0,.8,0v-34.47h-.8v34.47Z" style="fill: #0e3b7b;"/>
      <path d="M754.1,35.88c11.97,1.65,22.61,5.94,29.12,16.75,8.61,14.31,4.29,30.63-9.93,39.23-1.95,1.18-3.97,2.26-6.43,3.65,9.59,13.99,19.04,27.77,29.33,42.78-7.58,0-13.6-.19-19.6.07-3.76.16-4.94-2.59-6.52-4.89-5.44-7.89-11.35-15.53-15.94-23.89-4.1-7.46-9.53-10.19-17.61-8.98-3.41.51-6.9.55-10.35.81-2.35,4.02-7.09,7.45-2.11,12.97,1.3,1.44.77,4.47-1.23,6.29-1.42,1.29-2.29,3.06-.77,4.48,5.2,4.85.86,8.71-1.06,12.85-2.33,0-4.67,0-7,0,.44-4.79-6.84-1.54-6.77-7.3.33-27.51.04-55.03-.26-82.55-.09-8.2,3.58-11.26,11.58-11.35,11.85-.14,23.76,1.36,35.55-.91ZM726.56,89.08l-.09-.08c5.24,6.87,22,5.09,29.49-3.14,7.51-6.32,10.99-14.27,8.2-23.88-2.18-7.51-7.25-12.63-15.42-13.9-.15-.83-.05-2.2-.49-2.41-7.18-3.32-14.67-1.64-22.08-1.18.6.87,1.19,1.74,1.79,2.6-.47.24-.98.36-1.51.37-3.23,2.34-1.6,5.79-1.97,8.78-1.19,9.46,2.42,19.25-2.91,28.56-2.06,3.6,1.72,4.63,5,4.28Z" style="fill: #0c397a;"/>
      <path d="M900.65,137.72c-1.82.28-2.68.5-3.54.54-18.24.7-18.48.79-25.11-16.33-2.11-5.44-4.75-7.64-10.71-7.33-10.44.53-20.95.53-31.39.08-5.35-.23-7.92,1.78-9.3,6.62-.95,3.33-2.91,6.4-3.66,9.76-2.02,8.99-8.86,7.45-15.02,7.13-3.68-.19-1.93-2.57-1.2-4.33,13.16-31.86,26.31-63.73,39.52-95.57,2.59-6.24,8.13-2.58,12.25-3.13,2.93-.39,6.62-1.63,8.58,3.37,12.89,32.89,26.15,65.64,39.59,99.2ZM864.54,101.85c-6.12-15.07-11.77-28.96-18.12-44.61-5.8,14.56-10.53,26.99-15.75,39.21-1.95,4.57-.73,5.52,3.68,5.45,9.57-.16,19.13-.05,30.2-.05Z" style="fill: #113d78;"/>
      <path d="M684.01,298.69c-2.03.2-2.9.34-3.76.37-18.13.46-18.37.56-24.98-16.5-2.14-5.52-4.96-7.48-10.83-7.19-10.45.51-20.95.39-31.41.15-4.68-.11-7.78,1.02-8.92,5.96-.51,2.24-1.63,4.33-2.47,6.49q-4.65,11.93-19.21,10.44c7.69-18.62,15.27-37.01,22.87-55.39,5.87-14.2,12.06-28.28,17.51-42.64,1.86-4.9,5.03-5.27,8.79-4.57,4.31.81,9.99-3.18,12.72,3.69,13.08,32.86,26.26,65.68,39.68,99.19ZM612.21,261.91h35.33c-5.94-14.73-11.49-28.51-17.78-44.11-6.41,16.12-11.94,30.02-17.55,44.11Z" style="fill: #113d78;"/>
      <path d="M692.3,137.79c-1.55.29-2.12.47-2.69.49-18.71.5-19,.62-25.81-16.68-2.06-5.23-4.5-7.17-10.03-6.96-10.45.39-20.94.39-31.4,0-5.1-.19-8.29,1.14-9.62,6.29-.57,2.22-1.68,4.31-2.57,6.45q-4.92,11.88-18.94,10.18c7.89-19.14,15.68-38.13,23.53-57.09,5.54-13.38,11.71-26.53,16.56-40.15,2.87-8.07,8.68-4.59,13.55-5.3,4.46-.65,7.1.56,9.01,5.47,11.88,30.51,24.25,60.84,36.42,91.23.75,1.86,1.25,3.82,1.97,6.08ZM656.5,101.85c-6.09-15.16-11.62-28.92-17.98-44.74-5.96,14.92-10.97,27.73-16.24,40.45-1.73,4.18.53,4.31,3.49,4.3,9.83-.02,19.67,0,30.72,0Z" style="fill: #103c77;"/>
      <path d="M387.53,246.65c.01-14.84-.04-29.68.06-44.52.02-2.6-1.26-6.49,3.54-6.32,18.27.65,36.76-2.39,54.77,2.07,18.57,4.6,27.8,18.63,25.53,36.92-1.78,14.27-13.18,24.85-29.54,27.65-8.66,1.48-17.41,1.77-26.1,1.22-6.29-.4-7.95,1.85-7.53,7.82.51,7.24-.14,14.55.19,21.81.2,4.46-1.03,5.86-5.73,5.93-15.2.22-15.19.46-15.19-15.05,0-12.51,0-25.02.01-37.54ZM444.91,215.03c-.16-2.28-1.42-3.35-3.67-3.31-10.5-5.48-21.79-3.14-32.83-3.33-3.56,13.86-2.91,27.74-.23,41.63,11.86,1.93,23.62,2.82,34.62-3.56,4.04.76,6.47-1.68,7.98-4.73.89-1.78-1.4-1.86-2.66-2.22.28-1.14.57-2.28.85-3.42,3.32-.19,7.8.95,3.65-5.17-1.5-2.21-.96-6.08-.7-9.14.45-5.37-1.97-7.24-6.96-6.7l-.06-.07Z" style="fill: #0f3b78;"/>
      <path d="M979.44,212.31c-3.32,5.27-6.29,6.68-11.92,1.78-8.31-7.24-18.25-11.42-29.8-8.55-7.18,1.78-11.85,6.11-12.74,13.67-.85,7.2,4.35,10.46,9.63,13,7.05,3.39,14.46,6.02,21.63,9.18,3.97,1.75,7.95,3.63,11.59,5.98,18.05,11.67,18.29,34.09.63,46.3-20.58,14.23-51.81,10.21-68.33-8.83-2.39-2.75-5.44-5.03-1.13-9.28,4.59-4.53,5.71.04,7.93,2.03,11.27,10.07,23.86,15.54,39.15,10.94,7.76-2.33,11.72-7.81,12.73-15.9.98-7.87-4.27-10.98-9.87-13.59-9.72-4.53-19.98-7.99-29.39-13.06-10.75-5.78-18.78-14.2-16.83-27.88,1.9-13.33,11.41-19.76,23.14-23.29,14.7-4.42,28.73-2.63,41.63,6.14,4.62,3.14,8.54,6.98,11.96,11.35Z" style="fill: #113d78;"/>
      <path d="M869.04,295.7c-.23-.17-.64-.31-.68-.52-3.06-17.95-14.37-22.89-30.89-19.66-.28.05-.59.05-.87,0-15.8-2.96-26.77,1.63-29.73,18.9-.67,3.91-3.35,4.97-7.01,4.78-5.32-.27-10.66-.31-15.99-.44-1.3-2.42-.88-5.02-.77-7.58,2.04,2.33,4.07,4.66,6.89,7.89,13.33-32.07,26.27-63.2,39.2-94.33,3.47-8.36,10.98-11.63,19.81-8.96,2.5.76,2.83,2.6,3.55,4.43,12.58,31.76,25.16,63.51,37.75,95.27-7.09.07-14.17.14-21.26.21ZM837.74,217.75c-6.43,16.18-11.95,30.08-17.7,44.57h35.53c-5.8-14.5-11.35-28.36-17.83-44.57Z" style="fill: #113d78;"/>
      <path d="M958.82,47.55c-.08,27.26-.42,54.53-.08,81.79.09,7.03-1.38,9.56-8.9,9.13-12.16-.69-12.15-.17-12.16-12.52-.02-26.1-.08-52.21-.13-78.31-.25-4.52-3.67-3.67-6.44-3.71-6.11-.08-12.22.05-18.32-.07-2.72-.05-6.5.81-6.18-3.83.26-3.88,3.63-3.08,6.08-3.08,23.56-.06,47.11.11,70.67-.15,5.55-.06,7.34,2.13,6.83,7.17,0,0,.02-.07.02-.07-8.32,0-16.65-.04-24.97.02-2.73.02-6.1-.8-6.41,3.62Z" style="fill: #0a3979;"/>
      <path d="M766.18,197.44c4.58-3.82,9.75-.83,16.31-2.01-9.83,14.86-18.55,28.65-27.96,41.94-3.49,4.93-2.99,8.12.35,12.74,8.97,12.41,17.36,25.24,25.99,37.91-1.92.73-3.23-.67-4.74-1.36-2.11,9.08-7.5,3.54-12.79,1.61,1.18,4.3,4.18,6.9,3.09,10.44-10.33-10.2-17.51-22.78-25.02-34.91-5.95-9.61-12.79-14.07-23.82-11.74-.03-.66-.06-1.31-.1-1.97,3.28-.36,6.55-.73,9.83-1.09-3.87-2.98-8.32-9.39-9.84,1.07-1.75.24-3.38.65-3.2,2.93.14,1.78,1.58,2.06,2.97,2.31-.05,3.48-.09,6.95-.14,10.43-3.73-1.59-7.93-2.81-6.61-8.39,1.83-7.76-4.95-18,6.61-22.95.27,3.2,1.34,4.83,5.21,5.07,9.93.62,18.81.01,22.98-11.11.66-1.77,2.31-3.17,3.5-4.75.72,1.55,2.08,1.96,3.63,2.01.44,1.99-1.04,4.52,1.56,5.84.26.13,1.44-.72,1.58-1.28.69-2.62-.27-4.29-3.13-4.58-.03-1.92-.79-3.24-2.88-3.46,5.54-8.26,11.09-16.52,16.63-24.78,1.16,4.7,3.25,4.19,7.72.85-3.83-.39-5.79-.59-7.75-.79ZM745.44,239.64c.25,1.55-.5,3.51,1.56,4.28.34.13,1.48-.78,1.57-1.32.38-2.3-1.33-2.73-3.07-3.01.85-1.89,4.72-2.6,2.68-5.5-1.26-1.79-2.4.24-3.38,1.12-2.03,1.8-3.71,3.57.65,4.44ZM755.92,278.09c.25,1.25.22,2.74,2.13,2.62.2-.01.53-.34.54-.54.13-1.91-1.36-1.88-2.61-2.13-.05-3.7-.95-7.06-4-9.53.92,3.36-1.53,8.06,3.95,9.58ZM734.99,246.59c-.23-1.26-.19-2.75-2.11-2.63-.2.01-.53.34-.54.54-.12,1.92,1.37,1.87,2.63,2.11-1.1,5.22,2.76,7.02,6.4,10.19.98-6.36-2.23-8.61-6.38-10.21ZM764.75,281.72c-.58.94-1.32,1.6-1.21,2.06.16.65.94,1.15,1.46,1.71.41-.52,1.17-1.07,1.14-1.57-.04-.63-.73-1.21-1.4-2.21Z" style="fill: #113d78;"/>
      <path d="M717.13,234.42c-11.57,4.95-4.79,15.19-6.61,22.95-1.31,5.58,2.88,6.8,6.61,8.39,0,8.2,0,16.39,0,24.59-9.36,3.05-10.09,2.6-10.1-6.85-.04-23.2,0-46.4-.06-69.6,0-1.84.76-4.73-2.19-4.74-2.37-.01-2.88,2.47-2.95,4.59-.07,2.03-.05,4.06-.05,6.09,0,21.46-.03,42.92.02,64.38.01,4.91-2.21,10.12,1.71,14.59-3.87.55-7.18,1.31-7.09-4.91.38-28.59.34-57.19.46-85.78,3.15-.43,3.2-2.79,3.12-5.13-.12-3.43,1.13-5.72,4.88-5.22,3.25.43,7.9-2.17,9.06,3.53.39,1.92,1.26,3.1,3.23,3.37.01,1.18.03,2.36.04,3.54-.2.16-.59.35-.56.46.09.42.31.81.48,1.21,0,8.19,0,16.37,0,24.56Z" style="fill: #0d3a78;"/>
      <path d="M115.33,311.92c-15.65-10.78-28.3-24.48-39.03-40.05-1.22-1.77-3.86-3.82-1.13-5.82,1.98-1.45,3.48,1.15,4.94,2.42,2.57,2.25,4.54,5.26,7.99,6.43,17.28,14.84,37.23,24.13,59.47,28.71,3.08.63,6.1,1.55,9.16,2.34-7.93-.24-15.73.86-23.58-2.91-6.58-3.16-14.8,1.84-17.8,8.88ZM111.98,296.6c-1.46,1.8-2.79,2.96-1.65,4.75.18.28,1.2.42,1.4.21,1.27-1.31,1.41-2.83.25-4.96Z" style="fill: #1f8f59;"/>
      <path d="M703.51,298.81c-3.93-4.46-1.7-9.68-1.71-14.59-.05-21.46-.02-42.92-.02-64.38,0-2.03-.02-4.06.05-6.09.07-2.12.58-4.6,2.95-4.59,2.96.02,2.19,2.91,2.19,4.74.06,23.2.01,46.4.06,69.6.02,9.45.75,9.9,10.1,6.85q.54,9.17-13.61,8.45Z" style="fill: #113d78;"/>
      <path d="M290.96,47.42c-7.67,1.94-8.92-8.82-16.93-7.97,2.51,6.19,8.53,11.16,6.48,18.53-8.23-15.44-20.41-27.54-33.66-38.72,2.4-2.92,3.92-.82,5.53-.06,13.37,6.33,24.38,16.37,37.11,23.73,1.02.59,1,2.96,1.47,4.5Z" style="fill: #1f8f59;"/>
      <path d="M280.48,57.92c6.03.57,6.28,4.32,7.49,9.63,2.86,12.52,4.44,25.09,2.87,37.57-2.6,20.62-10.23,39.52-24.02,55.49-.87,1-2.39,1.45-3.6,2.15,8.38-13.45,16.96-26.8,21.95-42,7.09-21.58,2.9-42.34-4.69-62.84Z" style="fill: #1f8f59;"/>
      <path d="M990.18,43.98c.51-5.05-1.28-7.24-6.83-7.17-23.55.26-47.11.09-70.67.15-2.44,0-5.81-.8-6.08,3.08-.32,4.64,3.46,3.78,6.18,3.83,6.1.12,12.21-.01,18.32.07,2.77.04,6.19-.81,6.44,3.71-8.99-.06-17.98-.42-26.95-.07-5.1.2-6.94-.88-7.04-6.54-.11-6.25,2.9-6.12,7.37-6.1,24.35.13,48.71.34,73.06-.09,8.05-.14,9.97,2.12,6.2,9.14Z" style="fill: #163a61;"/>
      <path d="M754.1,35.88c-11.79,2.27-23.71.77-35.55.91-8,.1-11.67,3.16-11.58,11.35.3,27.52.59,55.04.26,82.55-.07,5.77,7.2,2.51,6.77,7.3-6.49,1.55-9.06-.16-8.94-7.64.46-29.37.32-58.75.08-88.12-.05-5.56,1.28-7.71,7.19-7.36,13.9.82,27.88-.89,41.77,1Z" style="fill: #163a61;"/>
      <path d="M766.44,298.72c1.1-3.54-1.91-6.14-3.09-10.44,5.28,1.93,10.68,7.47,12.79-1.61,1.51.69,2.82,2.09,4.74,1.36,0,0,.03.08.03.08-.26,1.69-.34,3.27,2.14,3.02,0,0,.05.05.05.05-.11,2.56-.53,5.16.77,7.58-5.81-.01-11.62-.03-17.42-.04Z" style="fill: #0d3a78;"/>
      <path d="M193.2,306.11c-.55.94-1.03,2.65-1.68,2.71-10.53,1.08-21.09,1.09-31.62-.01-.64-.07-1.12-1.78-1.67-2.72,11.65,0,23.31.01,34.96.02Z" style="fill: #1f8f59;"/>
      <path d="M535.73,196.43c-9.97,2.74-20.16.5-30.21,1.29-5.08.4-11.1-1.34-13.33,6.01-.54,1.77-1.9.92-3.54-4.06-.73-3.29,1.16-3.95,3.85-3.91,14.41.23,28.82.44,43.22.66Z" style="fill: #163a61;"/>
      <path d="M721,138.01c1.92-4.14,6.26-8,1.06-12.85-1.52-1.42-.65-3.19.77-4.48,2-1.82,2.52-4.84,1.23-6.29-4.97-5.52-.23-8.95,2.11-12.97.02,10.58-.09,21.16.13,31.74.08,4.04-.96,6.03-5.3,4.85Z" style="fill: #163a61;"/>
      <path d="M81.13,68.09c4.72-6.12,11-10.25,17.65-13.92-.07,10.58-4.58,14.15-17.65,13.92Z" style="fill: #e0ebd8;"/>
      <path d="M958.82,47.55c.31-4.43,3.68-3.6,6.41-3.62,8.32-.06,16.65-.02,24.97-.02.51,4.45-2.79,3.49-5.19,3.52-8.73.1-17.47.09-26.2.13Z" style="fill: #163a61;"/>
      <path d="M488.59,296.23v-47.8c.57,0,1.14,0,1.71,0,0,12.41.45,24.84-.18,37.22-.33,6.4,1.67,10.47,7.15,13.19-2.95-.68-7.18,2.93-8.67-2.6Z" style="fill: #163a61;"/>
      <path d="M717.17,204.65c-1.97-.27-2.84-1.44-3.23-3.37-1.16-5.71-5.81-3.1-9.06-3.53-3.75-.49-5,1.79-4.88,5.22.08,2.34.03,4.71-3.12,5.13-.1-1.99,0-4.02-.35-5.96-.98-5.48,1.4-7.2,6.56-6.44,1.96.29,4.03.32,5.99.03,7.28-1.09,10.06,1.71,8.09,8.91Z" style="fill: #163a61;"/>
      <path d="M869.04,295.7c7.09-.07,14.17-.14,21.26-.21.26.51.88,1.3.72,1.5-2.88,3.74-18.52,2.78-21.98-1.29Z" style="fill: #163a61;"/>
      <path d="M207.21,302.86c-2.96,5.81-8.24,2.28-12.44,3.09,3.9-2.02,8.22-2.34,12.44-3.09Z" style="fill: #1f8f59;"/>
      <path d="M717.51,250.11c.03.66.06,1.31.1,1.97-.11,1.09-.23,2.17-.34,3.26-1.4-.25-2.83-.53-2.97-2.31-.18-2.28,1.45-2.7,3.2-2.93l.02.02Z" style="fill: #0d3a78;"/>
      <path d="M752.45,225.64c-1.55-.05-2.91-.45-3.63-2.01.26-.49.51-.98.77-1.47,2.08.22,2.84,1.54,2.88,3.46l-.02.02Z" style="fill: #0d3a78;"/>
      <path d="M504.24,298.78c.42-2.4,1.11-4.16,3.64-1.53-.53,2.14-2.08,1.85-3.64,1.53Z" style="fill: #163a61;"/>
      <path d="M783.04,291.13c-2.48.25-2.4-1.32-2.14-3.02.71,1.01,1.43,2.01,2.14,3.02Z" style="fill: #113d78;"/>
      <path d="M717.13,209.86c-.17-.4-.39-.79-.48-1.21-.02-.11.36-.3.56-.46.27.57.24,1.13-.08,1.67Z" style="fill: #113d78;"/>
      <path d="M175.14,257.67c-.25-.44-.82-1.05-.7-1.3.52-1.02,1.32-.73,2.06-.14-.45.48-.91.96-1.36,1.44Z" style="fill: #fefefe;"/>
      <path d="M207.19,337.51c-29.24,2.7-56.53-3.33-81.77-18.38-.93-.55-1.55-1.63-2.32-2.46,4.55-1.6,7.58,2.04,11.05,3.58,4.22,1.87,7.89,4.64,12.79,2.13.8-.41,2.66-.2,3.13.41,5.91,7.71,15.47,4.52,22.76,7.81,10.09,4.56,20.69,2.94,31.13,3.51,2.12.12,2.91,1.54,3.23,3.39Z" style="fill: #1f8f59;"/>
      <path d="M123.13,316.71c-2.99-.46-5-2.53-7.19-4.32,6.59-5.55,7.6-1.8,7.19,4.32Z" style="fill: #1f8f59;"/>
      <path d="M423.76,88.69c4.34.29,8.76.12,12.99.96,8.1,1.61,14.16,8.7,14.66,16.33.55,8.33-4.55,15.59-13.06,18.37-8.79,2.87-17.86.96-26.8,1.42-3.55.19-3.22-2.55-3.23-4.86-.02-7.83.46-15.71-.16-23.49-.55-6.93,1.81-9.52,8.62-8.52,2.27.34,4.64.05,6.96.05,0-.09.01-.18.02-.27Z" style="fill: #f2f6f8;"/>
      <path d="M442.45,64.55c-.98.42-1.17,1.15-.83,2.1-.16,1-.33,2-.49,3.01-2.77,2.48-5.21,5.38-8.81,6.79-6.39.2-12.78.26-19.16.64-3.9.24-5.05-1.44-4.95-5.09.22-8.14.17-16.28.22-24.42,1.09-.15,2.18-.31,3.27-.46,8.74,1.13,18.02-1.53,26.15,3.78.56.6,1.12,1.2,1.67,1.8,1.92,3.72,3.15,7.6,2.91,11.85Z" style="fill: #eff7f8;"/>
      <path d="M408.44,47.57c-.06,8.14,0,16.29-.22,24.42-.1,3.66,1.04,5.33,4.95,5.09,6.38-.38,12.77-.45,19.16-.64-9.11,4.58-18.33,2.58-27.63.74-1.63-.32-2.17-1.12-1.59-1.92,5.99-8.21,1.65-17.92,4.07-26.61.12-.45.84-.73,1.27-1.09Z" style="fill: #163a61;"/>
      <path d="M437.87,50.89c-8.13-5.31-17.42-2.65-26.15-3.78,7.01-6.43,21.36-4.35,26.15,3.78Z" style="fill: #163a61;"/>
      <path d="M442.45,64.55c.24-4.25-.99-8.13-2.91-11.85,1.62-1.88,4.15-2.54,4.65.03.76,3.89,2.67,8.49-1.74,11.82Z" style="fill: #163a61;"/>
      <path d="M441.13,69.65c.16-1,.33-2.01.49-3.01,1.4.9,3.38,1.92,2.47,3.73-.94,1.85-2.18.51-2.96-.72Z" style="fill: #163a61;"/>
      <path d="M509.13,228.97c0-1.45-.42-3.06.07-4.33,2.06-5.35-5.38-14.77,4.72-16.14,20.25-2.76,31.64,3.8,33.82,17.3,1.62,10.06-4.76,19.91-14.68,22.66-6.56,1.82-13.27,1.05-19.93,1.25-3.82.12-4.12-2.2-4.1-5.05.04-5.23.01-10.46.01-15.68h.08Z" style="fill: #f2f6f8;"/>
      <path d="M489.01,242.93v-34.47h.8v34.46c-.27,0-.53,0-.8,0Z" style="fill: #163a61;"/>
      <path d="M748.74,48.07c8.17,1.27,13.24,6.39,15.42,13.9,2.79,9.61-.69,17.56-8.2,23.88-9.5,4.11-19.57,2.98-29.49,3.14,0,0,.09.08.09.08-.04-13.87-.07-27.75-.11-41.62.53,0,1.03-.13,1.51-.37,6.93.33,13.85.65,20.78.98Z" style="fill: #f2f6f8;"/>
      <path d="M726.46,88.99c9.92-.16,19.99.97,29.49-3.14-7.49,8.23-24.25,10.02-29.49,3.14Z" style="fill: #163a61;"/>
      <path d="M726.45,47.46c.04,13.87.07,27.75.11,41.62-3.28.35-7.06-.68-5-4.28,5.33-9.31,1.72-19.1,2.91-28.56.38-2.98-1.26-6.43,1.97-8.78Z" style="fill: #163a61;"/>
      <path d="M748.74,48.07c-6.93-.33-13.85-.65-20.78-.98-.6-.87-1.19-1.74-1.79-2.6,7.41-.46,14.9-2.14,22.08,1.18.44.2.34,1.58.49,2.41Z" style="fill: #163a61;"/>
      <path d="M864.54,101.85c-11.06,0-20.63-.11-30.2.05-4.41.07-5.63-.88-3.68-5.45,5.22-12.22,9.95-24.65,15.75-39.21,6.36,15.64,12,29.54,18.12,44.61Z" style="fill: #eff7f8;"/>
      <path d="M612.21,261.91c5.61-14.09,11.13-27.99,17.55-44.11,6.29,15.6,11.85,29.38,17.78,44.11h-35.33Z" style="fill: #eff7f8;"/>
      <path d="M656.5,101.85c-11.06,0-20.89,0-30.72,0-2.97,0-5.23-.12-3.49-4.3,5.27-12.71,10.27-25.53,16.24-40.45,6.36,15.82,11.88,29.58,17.98,44.74Z" style="fill: #eff7f8;"/>
      <path d="M442.81,246.47c-11.01,6.38-22.76,5.49-34.62,3.56.08-13.88.15-27.76.23-41.64,11.04.19,22.33-2.15,32.83,3.33,1.22,1.1,2.45,2.21,3.67,3.31l.06.07c3.87,6.52,6.25,13.32,4.01,21.01-.28,1.14-.57,2.28-.85,3.42-1.78,2.32-3.55,4.63-5.33,6.95Z" style="fill: #f2f6f8;"/>
      <path d="M448.99,236.1c2.24-7.69-.13-14.49-4.01-21.01,4.99-.55,7.41,1.32,6.96,6.7-.26,3.06-.8,6.93.7,9.14,4.15,6.12-.34,4.98-3.65,5.17Z" style="fill: #163a61;"/>
      <path d="M408.41,208.39c-.08,13.88-.15,27.76-.23,41.64-2.68-13.89-3.33-27.78.23-41.64Z" style="fill: #163a61;"/>
      <path d="M442.81,246.47c1.78-2.32,3.55-4.63,5.33-6.95,1.26.36,3.55.44,2.66,2.22-1.52,3.04-3.95,5.49-7.98,4.73Z" style="fill: #163a61;"/>
      <path d="M444.91,215.03c-1.22-1.1-2.45-2.21-3.67-3.31,2.26-.04,3.51,1.03,3.67,3.31Z" style="fill: #163a61;"/>
      <path d="M837.74,217.75c6.48,16.2,12.03,30.06,17.83,44.57h-35.53c5.75-14.48,11.28-28.38,17.7-44.57Z" style="fill: #eff7f8;"/>
      <path d="M734.99,246.59c4.16,1.6,7.37,3.85,6.38,10.21-3.64-3.17-7.5-4.97-6.4-10.19l.02-.02Z" style="fill: #0d3a78;"/>
      <path d="M717.49,250.09c1.52-10.47,5.98-4.06,9.84-1.07-3.28.36-6.55.73-9.83,1.09,0,0-.02-.02-.02-.02Z" style="fill: #0d3a78;"/>
      <path d="M755.92,278.09c-5.48-1.52-3.03-6.23-3.95-9.58,3.05,2.47,3.95,5.83,4,9.53l-.05.05Z" style="fill: #0d3a78;"/>
      <path d="M745.43,239.64c-4.35-.88-2.68-2.64-.65-4.44.99-.88,2.12-2.91,3.38-1.12,2.04,2.9-1.83,3.61-2.68,5.5l-.06.06Z" style="fill: #0d3a78;"/>
      <path d="M752.46,225.62c2.86.29,3.82,1.96,3.13,4.58-.15.56-1.32,1.42-1.58,1.28-2.6-1.32-1.12-3.85-1.56-5.84,0,0,.02-.02.02-.02Z" style="fill: #0d3a78;"/>
      <path d="M766.18,197.44c1.96.2,3.92.4,7.75.79-4.47,3.34-6.56,3.85-7.72-.85,0,0-.03.06-.03.06Z" style="fill: #0d3a78;"/>
      <path d="M745.49,239.58c1.74.29,3.45.72,3.07,3.01-.09.54-1.23,1.45-1.57,1.32-2.06-.77-1.31-2.73-1.56-4.28,0,0,.06-.06.06-.06Z" style="fill: #0d3a78;"/>
      <path d="M764.75,281.72c.67,1,1.36,1.58,1.4,2.21.03.5-.73,1.04-1.14,1.57-.52-.56-1.3-1.06-1.46-1.71-.11-.46.62-1.13,1.21-2.06Z" style="fill: #0d3a78;"/>
      <path d="M734.97,246.61c-1.26-.23-2.75-.19-2.63-2.11.01-.2.34-.53.54-.54,1.92-.12,1.87,1.37,2.11,2.63,0,0-.02.02-.02.02Z" style="fill: #0d3a78;"/>
      <path d="M755.98,278.03c1.25.25,2.74.22,2.61,2.13-.01.2-.34.53-.54.54-1.91.13-1.88-1.36-2.13-2.62,0,0,.05-.05.05-.05Z" style="fill: #0d3a78;"/>
      <path d="M56.98,229.21c-.46,2,1.08,4.6-1.67,5.86-.29.13-1.45-.75-1.6-1.33-.7-2.61.17-4.38,3.09-4.7,0,0,.18.17.18.17Z" style="fill: #fefefe;"/>
      <path d="M111.98,296.6c1.17,2.13,1.02,3.65-.25,4.96-.2.21-1.23.06-1.4-.21-1.14-1.78.19-2.94,1.65-4.75Z" style="fill: #099351;"/>
    </g>
  </g>
</svg>